<svg width="14" height="18" viewBox="0 0 14 18" fill="none" xmlns="http://www.w3.org/2000/svg">
<path fill-rule="evenodd" clip-rule="evenodd" d="M5.93577 17.0581C6.41403 17.4352 6.65316 17.6238 7 17.6238C7.34684 17.6238 7.58597 17.4352 8.06423 17.0581C10.0228 15.5137 14 11.8755 14 7.7983C14 5.95384 13.2625 4.18492 11.9497 2.88069C10.637 1.57646 8.85652 0.84375 7 0.84375C5.14348 0.84375 3.36301 1.57646 2.05025 2.88069C0.737498 4.18492 2.76642e-08 5.95384 0 7.7983C0 11.8755 3.97716 15.5137 5.93577 17.0581ZM7 10.1165C8.28866 10.1165 9.33333 9.07859 9.33333 7.7983C9.33333 6.518 8.28866 5.48011 7 5.48011C5.71134 5.48011 4.66667 6.518 4.66667 7.7983C4.66667 9.07859 5.71134 10.1165 7 10.1165Z" fill="#46D068"/>
<path fill-rule="evenodd" clip-rule="evenodd" d="M5.93577 17.0581C6.41403 17.4352 6.65316 17.6238 7 17.6238C7.34684 17.6238 7.58597 17.4352 8.06423 17.0581C10.0228 15.5137 14 11.8755 14 7.7983C14 5.95384 13.2625 4.18492 11.9497 2.88069C10.637 1.57646 8.85652 0.84375 7 0.84375C5.14348 0.84375 3.36301 1.57646 2.05025 2.88069C0.737498 4.18492 2.76642e-08 5.95384 0 7.7983C0 11.8755 3.97716 15.5137 5.93577 17.0581ZM7 10.1165C8.28866 10.1165 9.33333 9.07859 9.33333 7.7983C9.33333 6.518 8.28866 5.48011 7 5.48011C5.71134 5.48011 4.66667 6.518 4.66667 7.7983C4.66667 9.07859 5.71134 10.1165 7 10.1165Z" fill="url(#paint0_radial_297_4382)" fill-opacity="0.4"/>
<defs>
<radialGradient id="paint0_radial_297_4382" cx="0" cy="0" r="1" gradientUnits="userSpaceOnUse" gradientTransform="translate(7 0.84375) rotate(90) scale(8.5 7)">
<stop stop-color="white"/>
<stop offset="1" stop-color="white" stop-opacity="0"/>
</radialGradient>
</defs>
</svg>
