<svg width="170" height="60" viewBox="0 0 170 60" fill="none" xmlns="http://www.w3.org/2000/svg">
<mask id="mask0_297_3442" style="mask-type:alpha" maskUnits="userSpaceOnUse" x="0" y="0" width="170" height="60">
<rect width="170" height="60" rx="6" fill="#46D068"/>
<rect width="170" height="60" rx="6" fill="url(#paint0_radial_297_3442)" fill-opacity="0.4"/>
</mask>
<g mask="url(#mask0_297_3442)">
<rect opacity="0.3" x="55.7695" y="-20.709" width="16.006" height="101.483" transform="rotate(19.4363 55.7695 -20.709)" fill="white"/>
<rect opacity="0.3" x="64.1304" y="-20.709" width="30.7122" height="101.483" transform="rotate(19.4363 64.1304 -20.709)" fill="white"/>
<path opacity="0.4" d="M108.822 25.3213C108.687 25.0499 108.48 24.8216 108.225 24.6619C107.969 24.5021 107.675 24.417 107.375 24.4161H99.2432V14.5408C99.2607 14.1799 99.1602 13.8231 98.9574 13.5256C98.7546 13.2282 98.4607 13.0065 98.121 12.8949C97.7945 12.7862 97.4423 12.785 97.1151 12.8915C96.7878 12.9979 96.5023 13.2066 96.2995 13.4875L83.2889 31.5921C83.1259 31.8305 83.028 32.1083 83.0052 32.3973C82.9823 32.6864 83.0353 32.9764 83.1588 33.238C83.2725 33.5371 83.4701 33.7962 83.7272 33.9833C83.9843 34.1704 84.2898 34.2775 84.6062 34.2914H92.7379V44.1666C92.7381 44.5137 92.8468 44.8518 93.0483 45.1326C93.2499 45.4135 93.534 45.6226 93.8601 45.7302C94.0235 45.7815 94.1932 45.8092 94.3642 45.8125C94.6208 45.8132 94.874 45.7524 95.1029 45.6351C95.3319 45.5178 95.5301 45.3474 95.6815 45.1377L108.692 27.033C108.867 26.7875 108.972 26.4977 108.995 26.1957C109.018 25.8937 108.958 25.5911 108.822 25.3213ZM95.9905 39.0973V32.6455C95.9905 32.209 95.8192 31.7903 95.5142 31.4817C95.2092 31.173 94.7955 30.9996 94.3642 30.9996H87.8589L95.9905 19.6101V26.062C95.9905 26.4985 96.1619 26.9171 96.4669 27.2258C96.7719 27.5344 97.1855 27.7078 97.6169 27.7078H104.122L95.9905 39.0973Z" fill="white"/>
</g>
<defs>
<radialGradient id="paint0_radial_297_3442" cx="0" cy="0" r="1" gradientUnits="userSpaceOnUse" gradientTransform="translate(85) rotate(90) scale(30 85)">
<stop stop-color="white"/>
<stop offset="1" stop-color="white" stop-opacity="0"/>
</radialGradient>
</defs>
</svg>
